<svg id="Layer_1" data-name="Layer 1" xmlns="http://www.w3.org/2000/svg" xmlns:xlink="http://www.w3.org/1999/xlink" viewBox="0 0 596.89 462.1"><defs><style>.cls-1{fill:url(#linear-gradient);}.cls-2{fill:url(#radial-gradient);}.cls-3{fill:url(#radial-gradient-2);}.cls-4{fill:#fff;}.cls-5{fill:url(#radial-gradient-3);}.cls-6{fill:url(#radial-gradient-4);}</style><linearGradient id="linear-gradient" x1="34.58" y1="428.01" x2="586.88" y2="109.14" gradientTransform="matrix(0.98, 0.18, -0.16, 0.87, 49.26, -56.55)" gradientUnits="userSpaceOnUse"><stop offset="0" stop-color="#225999"/><stop offset="0.02" stop-color="#2d62a5"/><stop offset="0.09" stop-color="#4676c0"/><stop offset="0.15" stop-color="#5884d3"/><stop offset="0.22" stop-color="#638ddf"/><stop offset="0.29" stop-color="#6790e3"/><stop offset="0.41" stop-color="#84a7e8"/><stop offset="0.56" stop-color="#a2bfee"/><stop offset="0.72" stop-color="#b8d1f2"/><stop offset="0.86" stop-color="#c5dbf4"/><stop offset="1" stop-color="#c9dff5"/></linearGradient><radialGradient id="radial-gradient" cx="323.5" cy="199" r="56.35" gradientTransform="translate(-5.47 -118.95) scale(1 1.58)" gradientUnits="userSpaceOnUse"><stop offset="0" stop-color="#fff"/><stop offset="0.69" stop-color="#fefefe"/><stop offset="0.78" stop-color="#f4f4f4"/><stop offset="0.94" stop-color="#d8d8d8"/><stop offset="1" stop-color="#ccc"/></radialGradient><radialGradient id="radial-gradient-2" cx="323.26" cy="256.01" r="54" gradientUnits="userSpaceOnUse"><stop offset="0" stop-color="#efc90c"/><stop offset="0.26" stop-color="#efca0f"/><stop offset="0.42" stop-color="#f0cb17"/><stop offset="0.56" stop-color="#f1ce26"/><stop offset="0.69" stop-color="#f2d33b"/><stop offset="0.81" stop-color="#f4d856"/><stop offset="0.91" stop-color="#f7df77"/><stop offset="1" stop-color="#f9e698"/></radialGradient><radialGradient id="radial-gradient-3" cx="189" cy="235.17" r="84.33" xlink:href="#radial-gradient-2"/><radialGradient id="radial-gradient-4" cx="449.66" cy="235.17" r="84.33" xlink:href="#radial-gradient-2"/></defs><title>404</title><path class="cls-1" d="M426.57,430.49c-40.68-22,12.93-144.93-26-162.82-9.06-4.16-19.11-.79-27.85,2.14-39.52,13.25-39.82,55.92-69.45,105.67-28.14,47.28-81.12,98.21-113.29,88.71-22.73-6.72-29.65-42-30.21-45.1C146.36,346,247.3,297.16,222.94,252.65c-2.22-4-6.94-12.67-16.27-15.47-38.41-11.51-85.07,96.7-153.34,96-5.92-.06-27.89-.27-39.78-13.28-7.84-8.57-8-19.1-8.07-23.1C4.52,238,197.3,20.58,265.57,5.54c7.27-1.6,25.34-5.58,38,3.17a28.81,28.81,0,0,1,11,15.64c8,29-39.38,53.41-29.36,70.77,2.57,4.46,8.68,8,14.15,9.19,7.95,1.68,14.9-1.72,17.86-3.22,26.8-13.57,51.66-67.66,91.91-80.8,20.74-6.77,49.51-3.95,56.58,7.37C478.13,47.4,417,81.14,427.46,128.18c1.68,7.6,4,18,12.42,21.65,20.35,8.77,46.08-35.06,106.61-45.21,27.71-4.65,38.41,1.84,41.94,4.37,10.85,7.81,14.63,22,13.83,41.29-2.09,51.22-33.64,73-58,126.4-32.18,70.39-9.76,103.42-49.9,134.59C478.24,423.75,445.78,440.89,426.57,430.49Z" transform="translate(-5.47 -3.24)"/><ellipse class="cls-2" cx="318.03" cy="195.76" rx="55.5" ry="86"/><path class="cls-3" d="M358,227.49c0,2.3-.24,14.22-8,22.1-2.48,2.52-2.29,1.12-6,4.42-4.76,4.23-5.8,7.18-11,13-3.84,4.29-4.31,3.65-6,6-7.73,10.74,4.07,25.29-2,44-1.81,5.59-3.68,6.8-5,7-.67.1-3.49.3-8-7-11.87-19.22-3.62-39-15-64-3.87-8.49-9.13-15.67-8.41-26.4A51.21,51.21,0,0,1,292,212,42.76,42.76,0,0,1,298,201c5.79-7.43,15.95-14.05,26.3-12.82A37.19,37.19,0,0,1,334,191a38,38,0,0,1,10,5.52A37.18,37.18,0,0,1,355,212,39.15,39.15,0,0,1,358,227.49Z" transform="translate(-5.47 -3.24)"/><path class="cls-4" d="M345.77,204.67c2.16,3.59,1.8,7.87,1.3,8s-.75-2.72-3.07-6.64c-2.45-4.14-4.95-5.87-4.67-6.21S343.61,201.08,345.77,204.67Z" transform="translate(-5.47 -3.24)"/><path class="cls-5" d="M243,225.82a3.63,3.63,0,0,0-1.9-.82H225V131.71c0-2.24-3.13-3.36-5.13-1.22-23.52,25.2-84.16,90.77-85.68,99.51-.84,4.79.9,7,.9,7,1.61,2,4.44,2,5.45,2,6-.05,31.44,0,66.3,0q-.91,45.5-1.82,91c0,6.05,4.5,11,10,11s10-4.95,10-11c0-24.91.91-44.11.07-91h16.45a4.38,4.38,0,0,0,1.44-.82,3.43,3.43,0,0,0,1-1.46v-9.49A3.53,3.53,0,0,0,243,225.82Z" transform="translate(-5.47 -3.24)"/><path class="cls-6" d="M503.66,225.82a3.66,3.66,0,0,0-1.9-.82H485.7V131.71c0-2.24-3.13-3.36-5.13-1.22-23.52,25.2-84.16,90.77-85.68,99.51-.84,4.79.9,7,.9,7,1.61,2,4.44,2,5.45,2,6-.05,31.44,0,66.3,0q-.92,45.5-1.82,91c0,6.05,4.5,11,10,11s10-4.95,10-11c0-24.91.91-44.11.07-91h16.45a4.38,4.38,0,0,0,1.44-.82,3.52,3.52,0,0,0,1-1.46v-9.49A3.53,3.53,0,0,0,503.66,225.82Z" transform="translate(-5.47 -3.24)"/></svg>