<?xml version="1.0" encoding="utf-8"?>
<!-- Generator: Adobe Illustrator 24.0.1, SVG Export Plug-In . SVG Version: 6.00 Build 0)  -->
<svg version="1.1" id="Layer_1" xmlns="http://www.w3.org/2000/svg" xmlns:xlink="http://www.w3.org/1999/xlink" x="0px" y="0px"
	 viewBox="0 0 851 306" style="enable-background:new 0 0 851 306;" xml:space="preserve">
<style type="text/css">
	.st0{fill:url(#SVGID_1_);}
	.st1{opacity:0.28;fill:#A37972;}
	.st2{fill:url(#SVGID_2_);}
	.st3{fill:url(#SVGID_3_);}
	.st4{fill:url(#SVGID_4_);}
	.st5{fill:url(#SVGID_5_);}
	.st6{fill:url(#SVGID_6_);}
	.st7{fill:#5E594D;}
	.st8{fill:none;stroke:url(#SVGID_7_);stroke-miterlimit:10;}
	.st9{opacity:0.78;fill:#FFF4A6;}
	.st10{fill:#FFF4A6;}
	.st11{opacity:0.75;fill:#F9BF30;}
	.st12{opacity:0.76;fill:#F9BF30;}
	.st13{opacity:0.78;}
	.st14{opacity:0.76;}
	.st15{fill:#F9BF30;}
	.st16{opacity:0.25;fill:none;stroke:#F9BF30;stroke-miterlimit:10;}
	.st17{fill:#8C6239;}
	.st18{opacity:0.62;}
	.st19{fill:#FFD938;}
	.st20{fill:url(#SVGID_8_);}
	.st21{opacity:0.51;}
	.st22{fill:url(#SVGID_9_);}
	.st23{fill:url(#SVGID_10_);}
	.st24{opacity:0.69;fill:#8C6239;}
	.st25{opacity:0.25;}
	.st26{fill:url(#SVGID_11_);}
	.st27{opacity:0.75;}
	.st28{opacity:0.59;fill:#F9BF30;}
	.st29{opacity:0.85;}
	.st30{fill:#A37972;}
</style>
<linearGradient id="SVGID_1_" gradientUnits="userSpaceOnUse" x1="48.0442" y1="178.0259" x2="711.9725" y2="178.0259" gradientTransform="matrix(1.225 0.0304 -0.0222 0.8956 -35.8115 -16.1797)">
	<stop  offset="0" style="stop-color:#CF3E73"/>
	<stop  offset="1" style="stop-color:#FFD4E0"/>
</linearGradient>
<path class="st0" d="M560.51,267c-10.76-23.13,9.51-45.51-5-63c-9.53-11.49-26.59-11.86-33-12c-65.15-1.42-84.53,91.04-164,107
	c-37.06,7.44-78.71-3.45-85-22c-5.59-16.48,18.08-35.01,10-50c-6.41-11.89-27.67-12.03-35-12c-79.11,0.37-114.12,91.51-179,84
	c-21.52-2.49-46.19-15.82-52-35c-6.95-22.95,15.34-46.87,105.14-127.5C241.97,29.34,272.42,8.96,310.51,14
	c25.02,3.31,56.38,18,58.49,36c1.34,11.42-9.96,16.64-18.97,44.84c-4.11,12.86-9.91,31.01-2.03,39.16c7.56,7.83,24.38,2.99,31,1
	c67.46-20.26,84.73-107.43,156.23-126.26c25.25-6.65,59.06-5.24,68.38,10.66c15.52,26.48-45.28,78.57-26.05,111.37
	c4.39,7.49,12.54,13.27,20.95,15.24c43.47,10.16,69.66-87.21,144-103c41.39-8.79,88.85,9.58,92,29c5.65,34.78-132.68,61.41-137,132
	c-1.54,25.2,14.33,50.46-2,72c-8.09,10.67-19.48,14.36-28.83,17.38C629.27,305.49,574.36,296.77,560.51,267z"/>
<path class="st1" d="M683.06,146.82c2.51-6.35,3.11-15.36,0-22.61c-2.79-6.51-7.01-7.97-8.23-15.59c-0.22-1.38-0.22-2.18-0.39-3.46
	c0.03-0.24,0.1-0.93-0.27-1.65c-0.46-0.9-1.26-1.22-1.46-1.29c-11.97,4.72-23.94,9.44-35.9,14.15c-3.9,2.2-8.51,5.7-9.5,10.89
	c-1.77,9.19,9.58,14.39,12.67,27.22c2.78,11.54-2.31,24.3-8.87,31.49c-14.98,16.42-48.03,15.93-61.83-3.99
	c-10.13-14.62-6.95-35.48-1.11-43.83c4.77-6.82,8.45-10.89,8.45-10.89c5.28-5.84,7.04-6.26,7.39-8.71
	c0.56-3.97-3.45-7.16-15.84-17.42c-15.16-12.55-15.93-13.39-17.95-13.07c-7.23,1.17-12.14,14.3-19.73,34.6
	c-1.44,3.86-2.54,6.71-4.96,10.62c-3.09,5.01-5.27,6.06-7.01,13.55c-2.18,9.39,0.85,9.44,0,30.41c-0.48,11.82-1.56,14.55,0,21.05
	c1.09,4.56,3.73,9.08,8.97,17.93c7.5,12.67,11.36,19.07,16.45,21.83c5.58,3.03,5.82,0.18,15.71,3.9c9.77,3.68,18.08,9.69,18.7,10.14
	c5.16,3.77,5.69,5.13,8.97,6.24c5.07,1.71,7.78-0.18,15.71-1.56c10.45-1.81,28.3-2.5,31.41-5.46c3.15-3,1.92-4.21,6.73-9.36
	c2.13-2.28,6.31-6.76,12.71-9.36c7.86-3.19,10.06,0.11,14.96-3.12c3.35-2.21,2.97-4.18,8.97-14.81c5.92-10.48,6.8-9.48,8.23-14.04
	c3.02-9.65,0.47-18.68,0-20.27c-1.32-4.44-2.23-4.06-4.49-10.92c-2.94-8.91-2.46-12.74-2.24-14.04
	C679.98,151.45,681.43,150.95,683.06,146.82z"/>
<g>
	
		<radialGradient id="SVGID_2_" cx="1.8407" cy="-114.6354" r="1.0184" gradientTransform="matrix(79.2627 17.3833 18.664 -81.0642 2602.7605 -9151.0586)" gradientUnits="userSpaceOnUse">
		<stop  offset="0" style="stop-color:#FFE778"/>
		<stop  offset="0.489" style="stop-color:#FFE776"/>
		<stop  offset="0.667" style="stop-color:#FFE56F"/>
		<stop  offset="0.7942" style="stop-color:#FFE363"/>
		<stop  offset="0.897" style="stop-color:#FFDF53"/>
		<stop  offset="0.9843" style="stop-color:#FFDA3D"/>
		<stop  offset="1" style="stop-color:#FFD938"/>
	</radialGradient>
	<path class="st2" d="M693.74,150.19c2.6-6.16,3.22-14.9,0-21.93c-2.89-6.31-7.26-7.73-8.52-15.13c-0.31-1.82-0.19-2.6-0.68-4.96
		c-1.07-5.13-3.21-9.05-4.89-11.61c-15.8,9.46-31.6,18.92-47.41,28.38c20.95,16.01,23.23,46.02,7.69,63.21
		c-16.73,18.51-48.99,16.49-64.06-3.87c-14.39-19.43-8.74-49.67,14.09-63.21c-12.38-10.35-24.76-20.7-37.15-31.05
		c-1.83,2.24-4.46,5.71-7.07,10.26c-5.88,10.24-5.88,15.83-10.07,26.47c-6.13,15.56-9.75,12.8-12.4,23.44
		c-2.26,9.11,0.88,9.16,0,29.49c-0.5,11.47-1.61,14.11,0,20.42c1.13,4.42,3.87,8.81,9.3,17.39c7.77,12.29,11.77,18.49,17.05,21.18
		c5.78,2.94,6.03,0.17,16.27,3.78c10.12,3.57,18.74,9.4,19.37,9.83c5.35,3.66,5.89,4.98,9.3,6.05c5.25,1.66,8.06-0.18,16.27-1.51
		c10.83-1.76,29.32-2.43,32.54-5.29c3.27-2.91,1.99-4.08,6.97-9.08c2.21-2.22,6.54-6.56,13.17-9.08c8.15-3.09,10.42,0.11,15.5-3.03
		c3.47-2.14,3.08-4.06,9.3-14.37c6.13-10.16,7.05-9.19,8.52-13.61c3.13-9.36,0.49-18.12,0-19.66c-1.36-4.31-2.31-3.94-4.65-10.59
		c-3.05-8.65-2.55-12.36-2.32-13.61C690.54,154.68,692.04,154.2,693.74,150.19z"/>
</g>
<radialGradient id="SVGID_3_" cx="346.543" cy="171.3562" r="65.6096" gradientTransform="matrix(1 0 0 0.9694 0 2.719)" gradientUnits="userSpaceOnUse">
	<stop  offset="0" style="stop-color:#FFE778"/>
	<stop  offset="0.489" style="stop-color:#FFE776"/>
	<stop  offset="0.667" style="stop-color:#FFE56F"/>
	<stop  offset="0.7942" style="stop-color:#FFE363"/>
	<stop  offset="0.897" style="stop-color:#FFDF53"/>
	<stop  offset="0.9843" style="stop-color:#FFDA3D"/>
	<stop  offset="1" style="stop-color:#FFD938"/>
</radialGradient>
<path class="st3" d="M381.9,229.51c-5.34-0.44-28.05-0.81-58.99-0.87c0.09-20.35,0.19-40.7,0.28-61.05h39.32
	c0.22,0.02,1.82,0.15,3-1.03c0.83-0.82,0.97-1.8,1-2.12c0-2.2,0-4.4,0-6.6c-0.05-0.32-0.23-1.2-1-1.95
	c-1.13-1.09-2.63-0.99-2.85-0.97c-13.13,0-26.27,0-39.4,0c0.07-15.34,0.14-30.68,0.21-46.02c31.49-0.05,54.62-0.43,60.05-0.86
	c1.04-0.08,3.32-0.32,5-1.9c2.53-2.37,2.06-6.21,2-6.66c0,0-0.42-3.05-3-5.71c-7.39-7.62-34.67-2-65-3.81
	c-3.1-0.18-7.56-0.52-11.47,1.28c-0.58,0.21-1.09,0.42-1.53,0.61c0,0-3.82,1.7-5.44,3.88c-0.3,0.4-0.49,0.74-0.54,0.82
	c-0.46,0.8-1.03,2.13-1.02,3.88c0.21,33.14,0.41,66.27,0.62,99.41c-0.08,12.21-0.15,24.42-0.23,36.64c0.01,0.95,0.2,2.75,1.58,4.68
	c0.68,0.95,1.46,1.67,2.18,2.22c0.42,0.49,0.87,0.96,1.38,1.39c4.29,3.56,10.04,3.09,13.79,2.87c29.87-1.81,56.73,3.83,64.01-3.82
	c2.54-2.67,2.95-5.74,2.95-5.74c0.06-0.45,0.52-4.31-1.97-6.69C385.16,229.83,382.92,229.6,381.9,229.51z"/>
<radialGradient id="SVGID_4_" cx="364.5065" cy="173" r="0" gradientUnits="userSpaceOnUse">
	<stop  offset="0" style="stop-color:#FFE778"/>
	<stop  offset="0.489" style="stop-color:#FFE776"/>
	<stop  offset="0.667" style="stop-color:#FFE56F"/>
	<stop  offset="0.7942" style="stop-color:#FFE363"/>
	<stop  offset="0.897" style="stop-color:#FFDF53"/>
	<stop  offset="0.9843" style="stop-color:#FFDA3D"/>
	<stop  offset="1" style="stop-color:#FFD938"/>
</radialGradient>
<path class="st4" d="M364.51,173"/>
<radialGradient id="SVGID_5_" cx="455.5065" cy="170.5561" r="64.6304" gradientUnits="userSpaceOnUse">
	<stop  offset="0" style="stop-color:#FFE778"/>
	<stop  offset="0.489" style="stop-color:#FFE776"/>
	<stop  offset="0.667" style="stop-color:#FFE56F"/>
	<stop  offset="0.7942" style="stop-color:#FFE363"/>
	<stop  offset="0.897" style="stop-color:#FFDF53"/>
	<stop  offset="0.9843" style="stop-color:#FFDA3D"/>
	<stop  offset="1" style="stop-color:#FFD938"/>
</radialGradient>
<path class="st5" d="M490.01,91c-5.78,0-10.5,4.72-10.5,10.5v94.05l-49.07-98.19c-2.58-5.17-8.92-7.28-14.09-4.7h0
	c-4.19,2.1-6.37,6.66-5.67,11.07c-0.11,0.61-0.18,1.23-0.18,1.87v134c0,5.77,4.72,10.5,10.5,10.5s10.5-4.73,10.5-10.5v-93.13
	l48.89,97.83c1.83,3.66,5.54,5.78,9.39,5.79c0.07,0,0.14,0.01,0.22,0.01c0.12,0,0.24-0.01,0.37-0.02c0.05,0,0.1,0,0.15-0.01
	c5.54-0.27,9.98-4.87,9.98-10.47V101.5C500.51,95.72,495.78,91,490.01,91z"/>
<radialGradient id="SVGID_6_" cx="214.416" cy="168.0829" r="69.4108" gradientUnits="userSpaceOnUse">
	<stop  offset="0" style="stop-color:#FFE778"/>
	<stop  offset="0.489" style="stop-color:#FFE776"/>
	<stop  offset="0.667" style="stop-color:#FFE56F"/>
	<stop  offset="0.7942" style="stop-color:#FFE363"/>
	<stop  offset="0.897" style="stop-color:#FFDF53"/>
	<stop  offset="0.9843" style="stop-color:#FFDA3D"/>
	<stop  offset="1" style="stop-color:#FFD938"/>
</radialGradient>
<path class="st6" d="M267.4,90.29L267.4,90.29c-3.79-2.82-8.97-2.53-12.43,0.4c-1.65,1.1-2.95,2.68-3.71,4.54l-36.78,49.41
	l-39.05-52.45c-3.28-4.41-9.58-5.33-13.99-2.05c-3.01,2.24-4.4,5.89-3.92,9.39V238c0,5.5,4.5,10,10,10s10-4.5,10-10V128.47
	l28.03,37.65c0.67,1.29,1.63,2.47,2.87,3.39c4.41,3.28,10.71,2.36,13.99-2.05l28.1-37.74V238c0,5.5,4.5,10,10,10c5.5,0,10-4.5,10-10
	V102.49C272.44,98.3,271.24,93.15,267.4,90.29z"/>
<path class="st7" d="M206.51,56"/>
<g>
	
		<radialGradient id="SVGID_7_" cx="632.52" cy="174.691" r="113.1716" gradientTransform="matrix(0.7749 0 0 0.7925 120.4202 46.4565)" gradientUnits="userSpaceOnUse">
		<stop  offset="0" style="stop-color:#F8E37E"/>
		<stop  offset="0.5304" style="stop-color:#F8E17C"/>
		<stop  offset="0.7233" style="stop-color:#F7DC75"/>
		<stop  offset="0.8608" style="stop-color:#F5D26A"/>
		<stop  offset="0.8734" style="stop-color:#F5D168"/>
		<stop  offset="0.93" style="stop-color:#B49341"/>
		<stop  offset="0.9758" style="stop-color:#856626"/>
		<stop  offset="0.9986" style="stop-color:#73551B"/>
	</radialGradient>
	<path class="st8" d="M693.9,150.17c2.6-6.16,3.22-14.9,0-21.93c-2.89-6.31-7.26-7.73-8.52-15.13c-0.31-1.82-0.19-2.6-0.68-4.96
		c-1.07-5.13-3.21-9.05-4.89-11.61c-15.8,9.46-31.6,18.92-47.41,28.38c20.95,16.01,23.23,46.02,7.69,63.21
		c-16.73,18.51-48.99,16.49-64.06-3.87c-14.39-19.43-8.74-49.67,14.09-63.21c-12.38-10.35-24.76-20.7-37.15-31.05
		c-1.83,2.24-4.46,5.71-7.07,10.26c-5.88,10.24-5.88,15.83-10.07,26.47c-6.13,15.56-9.75,12.8-12.4,23.44
		c-2.26,9.11,0.88,9.16,0,29.49c-0.5,11.47-1.61,14.11,0,20.42c1.13,4.42,3.87,8.81,9.3,17.39c7.77,12.29,11.77,18.49,17.05,21.18
		c5.78,2.94,6.03,0.17,16.27,3.78c10.12,3.57,18.74,9.4,19.37,9.83c5.35,3.66,5.89,4.98,9.3,6.05c5.25,1.66,8.06-0.18,16.27-1.51
		c10.83-1.76,29.32-2.43,32.54-5.29c3.27-2.91,1.99-4.08,6.97-9.08c2.21-2.22,6.54-6.56,13.17-9.08c8.15-3.09,10.42,0.11,15.5-3.03
		c3.47-2.14,3.08-4.06,9.3-14.37c6.13-10.16,7.05-9.19,8.52-13.61c3.13-9.36,0.49-18.12,0-19.66c-1.36-4.31-2.31-3.94-4.65-10.59
		c-3.05-8.65-2.55-12.36-2.32-13.61C690.7,154.66,692.21,154.17,693.9,150.17z"/>
	<path class="st9" d="M591.2,201.89c-0.91-0.38-1.88-0.18-2.15,0.44c0.27,0.93,0.58,2.23,0.71,3.77c0.14,1.68,0.27,3.19-0.45,4.62
		c-0.65,1.3-1.34,1.24-2.7,2.62c-2.49,2.52-3.41,5.13-4.01,7.42c-0.4,1.53-0.33,2.95-0.18,5.8c0.04,0.68,0.13,1.95,1.2,2.63
		c0.2,0.13,0.44,0.28,0.66,0.27c1.07-0.01,0-3.4,0.57-6.71c0.39-2.26,1.53-3.83,3.81-6.96c2.18-3,2.89-3.14,3.69-4.88
		c0.65-1.43,1.13-3.7,0.01-7.21C592.46,202.98,591.95,202.2,591.2,201.89z"/>
	<path class="st9" d="M607.72,228.85c-0.24,0.23-0.98,0.95-1.55,0.76c-0.69-0.24-0.75-1.66-0.77-2.27c-0.15-4.05-0.01-9.45,0-10.59
		c0.03-2.84,0.09-8.87-3.1-10.59c-1.61-0.87-3.66-0.43-5.42-2.27c-0.19-0.19-1.02-1.07-0.77-1.51c0.21-0.37,1.13-0.35,2.32,0
		c1.43,0.7,5.04,2.3,9.3,2.27c2-0.02,3.55-0.03,5.42-0.76c1.3-0.51,1.95-1.04,2.32-0.76c0.69,0.52-0.09,3.35-1.55,3.78
		c-0.69,0.2-1.07-0.26-1.55,0c-1.1,0.6-0.14,3.53-0.77,3.78c-0.71,0.29-2.42-3.23-3.1-3.03
		C607.02,208.12,610.89,225.77,607.72,228.85z"/>
	<path class="st10" d="M593.78,233.38"/>
	<path class="st11" d="M618.57,255.32c-3.15,0.42-6.32,0.83-10.07,1.51c-7.4,1.35-8.58,2.19-11.62,1.51c-2.23-0.49-4-1.48-5.42-2.27
		c-2.76-1.53-2.97-2.29-6.2-4.54c-3.94-2.74-7.17-4.08-6.97-4.54c0.05-0.12,0.29-0.08,3.1,0c0.94,0.03,1.42,0.04,1.55,0
		c1.31-0.39,1.32-1.68,3.1-3.03c0.51-0.39,1.37-0.93,1.55-0.76c0.32,0.3-2.14,2.1-2.32,4.54c-0.19,2.54,2.1,5.66,4.65,6.05
		c2.74,0.42,4.94-2.46,6.2-1.51c0.53,0.4,0.65,1.31,0.77,2.27c0.19,1.46-0.22,1.8,0,2.27c0.8,1.69,7.77,0.64,13.95-1.51
		c2.31-0.81,4.16-1.65,5.42-2.27c3.25-28.23,1.61-35.49-0.77-36.3c-0.4-0.14-2.14-0.54-2.32-1.51c-0.23-1.17,1.98-1.96,3.1-3.78
		c0.76-1.23,1.18-3.42-0.77-7.56c0.03-0.34,0.19-1.96,0.91-2.14c0.85-0.2,1.95,1.73,2.19,2.14c1.53,2.67,1.18,4.91,1.55,9.08
		c0.25,2.76,0.53,3.18,0.77,5.29c0.66,5.63-0.61,8.82-1.55,15.13c-1.37,9.2-2.13,14.29,0.77,17.39c3.71,3.96,11.65,2.52,11.62,3.03
		c-0.01,0.28-2.42,0.29-6.97,0.76C622.9,254.75,621.46,254.94,618.57,255.32z"/>
	<path class="st11" d="M629.68,240.88c-0.64,0.06-1.21-0.4-1.27-1.02c-0.09-5.75-0.48-11.97-1.31-18.58
		c-0.37-2.95-0.81-5.8-1.3-8.53c-0.01-0.06-0.01-0.15,0.01-0.26c0.03-0.21,0.12-0.41,0.26-0.57c0.21-0.24,0.57-0.47,0.79-0.41
		c0.32,0.09,0.55,0.87,0.26,3.72c1.67,8.95,1.83,13.09,1.55,15.13c-0.24,1.72-0.16,2.66,0,4.54c0.09,1.04,0.23,1.99,0.77,3.03
		c0.42,0.8,0.93,1.36,1.3,1.72C630.66,240.31,630.2,240.83,629.68,240.88z"/>
	<path class="st12" d="M654.22,213.72c-1.79-2.98-2.77-5.48-3.87-5.29c-1.62,0.27-1.71,6.09-2.32,6.05
		c-0.48-0.03-0.75-3.57-0.77-6.05c-0.01-1.06,0.04-0.99,0-1.51c-0.21-3.14-1.83-5.4-2.32-6.05c-1.71-2.24-3.81-3.29-4.83-3.73
		c-0.05-0.06-0.31-0.37-0.27-0.83c0.03-0.29,0.16-0.57,0.41-0.77l0,0c0.49-0.4,1.23-0.34,1.64,0.13
		c6.07,7.38,12.33,15.01,15.45,18.81c8.5,10.36,9.39,11.48,9.89,11.94c0.09,0.08,0.13,0.11,0.18,0.16
		c5.11,4.29,13.34-0.53,13.95,0.76c0.37,0.78-2.3,3.35-5.42,3.78c-0.76,0.11-0.65-0.04-2.32,0c-3.03,0.07-5.49,0.6-6.2,0.76
		c-2.56,0.57-3.55,1.15-3.87,0.76c-0.39-0.48,1.07-1.53,1.55-3.03C666.3,225.74,659.7,222.84,654.22,213.72z"/>
	<path class="st11" d="M648.9,235.98c-0.57,0.28-1.31-0.02-1.64-0.67c-2.64-6.17-5.77-12.75-9.5-19.59
		c-1.66-3.06-3.34-5.98-5.02-8.76c-0.03-0.07-0.08-0.16-0.11-0.28c-0.07-0.24-0.07-0.48-0.01-0.7c0.09-0.33,0.32-0.7,0.56-0.71
		c0.34-0.01,0.9,0.75,1.89,3.92c5.55,9.09,7.54,13.5,8.18,15.79c0.54,1.94,1.03,2.92,2.02,4.89c0.54,1.09,1.1,2.07,2.07,3
		c0.75,0.72,1.48,1.16,1.99,1.42C649.57,235.03,649.38,235.75,648.9,235.98z"/>
	<path class="st9" d="M640.27,200.11c0.25,0.14,0.59,0.37,0.77,0.76c0.44,0.93-0.39,1.9-0.77,3.03c-0.73,2.13,0.31,4.32,0.77,5.29
		c0.79,1.65,2.61,4.07,3.06,4.66c0.06,0.08,0.24,0.29,0.39,0.61c0.29,0.6,0.26,1.21,1.64,4.64c0.22,0.56,0.59,1.46,0.05,2.27
		c-0.27,0.39-0.66,0.64-0.94,0.78c0,0-0.02-0.75-0.02-0.76c-0.03-1.46-0.03-1.5-0.03-1.51c-0.04-1.76-1.04-3.76-1.04-3.76
		c-2.04-4.1-6.08-6.3-6.98-9.95c-0.1-0.42-0.22-1.07-0.77-1.51c-1.24-0.98-3.39,0.05-3.87-0.76c-0.18-0.3-0.03-0.7,0-0.76
		c0.49-1.16,2.76-0.11,4.65-1.51c0.77-0.57,1.21-1.35,2.32-1.51C639.82,200.06,640.09,200.08,640.27,200.11z"/>
	<path class="st10" d="M624,185.74"/>
	<path class="st11" d="M589.9,240.95c0.16,0.07,0.58-0.49,0.77-0.76c2.75-3.74,3.87-9.08,3.87-9.08c1.29-6.13,0.64-5.7,1.55-8.32
		c1.33-3.85,3.38-6.63,3.1-6.81c-0.16-0.1-0.96,0.75-1.55,1.51c-4.47,5.75-2.62,13.05-5.42,17.39c-0.09,0.14-0.86,1.32-1.55,3.03
		C590.19,239.12,589.64,240.83,589.9,240.95z"/>
	<g class="st13">
		<path class="st10" d="M630.25,214.21c0.61,1.55,1.03,3.17,1.43,4.79c0.36,1.63,0.66,3.26,0.98,4.88c0.17,0.81,0.32,1.62,0.55,2.36
			c0.22,0.76,0.42,1.55,0.56,2.38c0.13,0.82,0.24,1.67,0.25,2.53c0.01,0.86-0.07,1.78-0.43,2.6l-0.2-0.02
			c-0.44-1.62-1.07-3.06-1.56-4.64c-0.25-0.79-0.45-1.6-0.56-2.45c-0.1-0.88-0.13-1.71-0.19-2.54c-0.12-1.66-0.22-3.3-0.38-4.94
			c-0.13-1.64-0.34-3.27-0.63-4.9L630.25,214.21z"/>
	</g>
	<g class="st14">
		<path class="st15" d="M620.48,201.4c2.4-0.12,4.73-0.68,6.89-1.61c1.08-0.46,2.1-1.05,3.09-1.68c0.5-0.32,0.96-0.65,1.43-1.02
			c0.48-0.37,0.95-0.75,1.6-1.04l0.69-0.31l-0.02,0.75c-0.01,0.69-0.36,1.17-0.67,1.57c-0.33,0.4-0.7,0.73-1.08,1.03
			c-0.77,0.6-1.59,1.1-2.41,1.55c-0.81,0.46-1.62,0.9-2.39,1.39c-0.39,0.24-0.77,0.5-1.14,0.76c-0.2,0.14-0.33,0.23-0.52,0.4
			c-0.09,0.08-0.2,0.18-0.38,0.27c-0.18,0.09-0.41,0.1-0.58,0.06l-0.8-0.19l0.61-0.47c0.61-0.47,1.21-0.45,1.75-0.53
			c0.57-0.04,1.03-0.09,1.55-0.25c1.02-0.3,2.04-0.71,3.11-0.98l0.32-0.08l-0.19,0.25c-0.37,0.48-0.74,0.96-1.12,1.43
			c0.3-0.52,0.61-1.04,0.92-1.55l0.13,0.17c-1.02,0.36-1.96,0.91-3.01,1.28c-0.51,0.21-1.13,0.31-1.64,0.38
			c-0.51,0.08-1.07,0.2-1.31,0.44l-0.19-0.65c0.1,0,0.09,0,0.28-0.17c0.15-0.16,0.38-0.36,0.56-0.49c0.38-0.29,0.76-0.56,1.16-0.83
			c0.79-0.53,1.59-1.02,2.4-1.48c0.8-0.45,1.57-0.94,2.27-1.49c0.35-0.28,0.68-0.57,0.94-0.88c0.27-0.31,0.46-0.66,0.46-0.92
			l0.67,0.44c-0.91,0.42-1.88,1.33-2.93,1.91c-1.04,0.63-2.16,1.15-3.31,1.56c-1.15,0.4-2.33,0.74-3.53,0.89
			C622.89,201.47,621.68,201.52,620.48,201.4z"/>
	</g>
	<g class="st13">
		<path class="st10" d="M655.66,183.08c0.27-0.72,0.91-1.29,1.75-1.55c0.83-0.26,1.75-0.16,2.5,0.09c0.76,0.25,1.38,0.62,1.89,1.02
			c0.53,0.37,0.98,0.91,1.05,1.16c0.14,0.3,0.24,0.7,0.61,1.09c0.36,0.39,0.9,0.74,1.43,0.99c0.3,0.13,0.58,0.28,0.81,0.35
			c0.11,0.04,0.21,0.06,0.3,0.06c0.06,0,0.16-0.02,0.29-0.04c0.47-0.08,0.96-0.35,1.48-0.64c0.51-0.29,1.15-0.62,1.85-0.78
			c0.52-0.17,1.08-0.26,1.66-0.36c1.15-0.18,2.54-0.36,3.99,0.11c0.65,0.21,1.16,0.47,1.44,0.65c0.31,0.17,0.4,0.34,0.85,0.46
			c0.86,0.04,1.71,0.37,2.22,0.77c0.53,0.38,0.87,0.79,1.41,1.22l0.01,0.5c-0.58,0.45-1.34,0.63-1.9,0.79
			c-0.58,0.18-0.87,0.39-1.11,0.62c-0.65,0.32-1.69,0.46-2.48,0.39c-0.81-0.06-1.36-0.17-1.79-0.24c-0.71-0.11-1.58-0.35-2.65-0.55
			c-0.53-0.1-1.09-0.17-1.69-0.35c-0.42-0.18-0.89-0.37-1.49-0.53c-0.58-0.15-1.21-0.29-1.86-0.4c-0.15-0.03-0.33-0.06-0.54-0.11
			c-0.19-0.06-0.36-0.12-0.51-0.17c-0.3-0.12-0.53-0.2-0.76-0.23c-0.53-0.08-1.09,0.03-1.8,0.09c-0.69,0.06-1.62-0.04-2.35-0.43
			c-0.8-0.45-1.1-0.75-1.42-1.11c-0.32-0.34-0.59-0.66-0.81-0.94c-0.23-0.28-0.4-0.55-0.69-0.83c-0.28-0.29-0.75-0.52-1.45-0.7
			L655.66,183.08z"/>
	</g>
	<g>
		<path class="st10" d="M656.18,182.88c0.34,0.76,0.42,1.6,0.38,2.4c-0.03,0.81-0.2,1.59-0.43,2.32c-0.06,0.18-0.13,0.36-0.21,0.54
			c-0.08,0.17-0.15,0.34-0.29,0.58c-0.25,0.43-0.6,0.73-0.92,0.99c-0.63,0.49-1.26,0.96-1.34,1.6l-0.49-0.31
			c0.7-0.6,0.8-1.72,1.33-2.74c0.28-0.51,0.67-1.07,1.36-1.47c0.69-0.4,1.59-0.44,2.23-0.25c0.74,0.17,1.35,0.64,1.75,1.09
			c0.42,0.46,0.71,0.95,0.98,1.41c0.53,0.94,0.84,1.84,1.51,2.66l-0.09,0.18c-1.18-0.2-2.05-1.12-2.78-1.81
			c-0.72-0.74-1.41-1.34-1.93-1.47c-0.35-0.12-0.56-0.13-0.81-0.07c-0.25,0.07-0.56,0.33-0.88,0.66c-0.68,0.66-1.34,1.6-2.29,2.31
			l-0.73,0.55l0.24-0.86c0.24-0.89,0.84-1.48,1.13-2.16c0.16-0.33,0.26-0.66,0.3-0.92c0-0.11,0.04-0.31,0.08-0.5
			c0.04-0.18,0.09-0.37,0.14-0.54c0.23-0.71,0.48-1.39,0.74-2.07l0.83-2.11L656.18,182.88z"/>
	</g>
	<g>
		<path class="st10" d="M657.37,200.46c0.67,0.18,1.25,0.61,1.73,1.06c0.5,0.46,0.94,0.95,1.39,1.4c0.44,0.46,0.89,0.87,1.37,1.14
			c0.53,0.3,1.12,0.57,1.73,0.88c0.6,0.31,1.24,0.66,1.84,1.2c0.29,0.26,0.59,0.66,0.76,1.05c0.18,0.39,0.26,0.78,0.32,1.12
			c0.1,0.7,0.11,1.28,0.21,1.75c-0.01,0.36,0.72,1.01,0.72,1.81l-0.19,0.07c-0.48-0.47-1.09-0.41-1.76-1.19
			c-0.54-0.67-0.72-1.41-0.93-1.97c-0.09-0.29-0.19-0.53-0.28-0.74c-0.09-0.21-0.17-0.35-0.32-0.56c-0.28-0.42-0.74-0.81-1.24-1.19
			c-0.5-0.37-1.06-0.73-1.61-1.16c-0.6-0.47-1.03-1.04-1.42-1.58c-0.75-1.09-1.32-2.28-2.42-2.92L657.37,200.46z"/>
	</g>
	<g class="st14">
		<path class="st15" d="M681.62,226.85c0.29-0.36,0.51-0.77,0.6-1.2c0.04-0.21,0.06-0.43,0.04-0.65l-0.05-0.34
			c0-0.14-0.03-0.3-0.01-0.43c0.14-1.08,0.6-1.95,1.03-2.84c0.9-1.75,1.95-3.4,2.99-5.02c0.52-0.8,1.08-1.61,1.46-2.38
			c0.41-0.82,0.38-1.26,0.01-1.67c-0.19-0.2-0.52-0.44-0.87-0.61c-0.35-0.18-0.73-0.31-1.14-0.42c-0.82-0.22-1.75-0.32-2.73-0.47
			c-0.98-0.16-2.05-0.33-3.13-0.83c-0.52-0.24-1.08-0.56-1.56-0.99c-0.47-0.42-0.83-0.86-1.14-1.23c-0.3-0.38-0.57-0.69-0.81-0.9
			c-0.24-0.22-0.41-0.32-0.75-0.47c-0.32-0.15-0.93-0.36-1.5-0.73c-0.56-0.38-1.01-0.8-1.44-1.37c-0.39-0.58-0.54-0.98-0.75-1.31
			c-0.2-0.34-0.45-0.67-0.71-0.99c-0.5-0.64-1.18-1.19-1.92-1.81c-1.44-1.23-2.95-2.3-4.62-3.34l0.1-0.28
			c1.97,0.23,3.93,0.92,5.68,1.85c0.88,0.43,1.8,0.97,2.65,1.72c0.42,0.37,0.79,0.78,1.14,1.23c0.35,0.46,0.63,0.93,0.82,1.12
			c0.16,0.2,0.45,0.42,0.69,0.56c0.25,0.15,0.56,0.26,1.12,0.5c0.55,0.23,1.2,0.67,1.64,1.13c0.45,0.46,0.76,0.93,1.03,1.32
			c0.26,0.4,0.49,0.73,0.71,0.98c0.21,0.24,0.47,0.45,0.81,0.64c0.64,0.39,1.48,0.63,2.38,0.85c0.91,0.22,1.9,0.39,2.92,0.75
			c0.51,0.17,1.03,0.4,1.52,0.7c0.49,0.3,0.95,0.64,1.38,1.18c0.43,0.56,0.66,1.27,0.6,2c-0.07,0.73-0.36,1.26-0.62,1.72
			c-0.56,0.91-1.17,1.65-1.76,2.42c-1.2,1.51-2.38,3.01-3.41,4.61c-0.5,0.79-1.01,1.63-1.21,2.46c-0.03,0.11-0.02,0.19-0.03,0.29
			c-0.01,0.09,0.02,0.26,0.01,0.38c-0.01,0.27-0.05,0.53-0.14,0.78c-0.17,0.5-0.47,0.93-0.83,1.28L681.62,226.85z"/>
	</g>
	<g>
		<path class="st15" d="M676.7,219.22c-0.71-0.63-1.42-1.29-1.97-2.09c-0.27-0.39-0.52-0.85-0.61-1.34
			c-0.09-0.48-0.11-0.96-0.15-1.42c-0.04-0.46-0.09-0.93-0.31-1.32c-0.23-0.39-0.58-0.7-0.97-0.95c-0.39-0.25-0.82-0.47-1.19-0.77
			c-0.37-0.3-0.65-0.7-0.83-1.14c0.19,0.43,0.49,0.8,0.87,1.09c0.37,0.28,0.8,0.48,1.21,0.72c0.41,0.24,0.8,0.55,1.07,0.96
			c0.27,0.43,0.34,0.92,0.4,1.39c0.06,0.47,0.1,0.94,0.21,1.38c0.1,0.44,0.33,0.82,0.61,1.19c0.55,0.73,1.26,1.34,1.99,1.92
			L676.7,219.22z"/>
	</g>
	<path class="st16" d="M645.61,194.17c0.1-2.07-1.9-2.46-0.4-5.32c1.56,1.58,3.81,2.98,5.62,4.36c-1.11-1.42-4.41-3.34-4.08-5.27
		c0.4-2.31,1.73,0.17,2.92,0.64c-0.33-1.3-2.48-2.04-2.64-3.75c-0.09-0.99,0.89-2.24,1.09-3.25c0.97,1.43,3.36,1.07,4.37,1.47
		c-1.86-0.12-4.99-1.5-2.99-2.66c1.66-0.96,4.24,0.35,6.14-0.23"/>
	<path class="st17" d="M689.56,213.99c-0.02-2.66-0.73-4.62-1.83-6.82c0.66,2.19,4.33,2.46,5.63,0.78"/>
	<g class="st18">
		<path class="st10" d="M675.47,196.37c1.08-0.37,2.14-0.29,3.09-0.03c0.97,0.24,1.8,0.68,2.53,1.16c0.36,0.25,0.7,0.5,1.03,0.77
			l0.76,0.68c0.54,0.47,1.47,0.97,2.12,1.94l-0.06,0.19c-0.84-0.25-1.73-0.33-2.59-0.63c-0.88-0.28-1.62-0.82-2.37-1.29
			c-1.45-1.02-2.93-1.96-4.58-2.61L675.47,196.37z"/>
	</g>
	<path class="st11" d="M584.25,201.13c1.33-2.96,2.05-6.07,1.58-6.27c-0.36-0.16-1.04,1.56-3.27,3.34c-1.75,1.4-2.5,1.26-3.22,2.28
		c-1.15,1.61-0.24,3.3-0.25,5.31c-0.04,5.39-6.72,12.02-12,12.24c-2.7,0.12-4.7-1.45-5.15-0.81c-0.52,0.75,2.57,2.36,2.87,5.16
		c0.52,4.85-7.37,12.51-14.08,12.35c-4.26-0.11-6.73-3.33-7.13-2.84c-0.47,0.58,2.66,5.36,7.97,7.04c1.55,0.49,1.39,0.11,6.19,0.76
		c4.67,0.63,8.27,1.44,9.26,1.67c4.19,0.97,7.09,1.98,7.18,1.77c0.15-0.34-9.01-1.21-11.09-6.89c-2.41-6.57,5.5-17.28,9.23-19.53
		c0.41-0.25,1.69-0.95,3.22-2.28c1.99-1.72,1.88-2.31,3.27-3.34c2.57-1.89,5.16-1.52,5.3-2.38c0.11-0.67-1.51-0.72-1.98-2.02
		C581.67,205.36,582.92,204.09,584.25,201.13z"/>
	<g>
		<path class="st19" d="M571.24,181.73c1.14,1.75,2.03,3.64,2.93,5.51c0.89,1.87,1.74,3.74,2.8,5.45l0.32,0.51l-0.51,0.43
			c-0.81,0.69-1.39,1.65-1.8,2.69c-0.4,1.05-0.66,2.19-0.98,3.33c-0.32,1.14-0.63,2.32-1.04,3.5c-0.4,1.17-0.88,2.37-1.62,3.41
			l-0.25,0.35l-0.19-0.26c-0.05-0.07-0.11-0.13-0.15-0.25c-0.06-0.12-0.01-0.34,0.05-0.39c0.12-0.13,0.19-0.17,0.25-0.28l0.19,0.05
			c0,0.15-0.09,0.33-0.11,0.42c0,0.06,0.03-0.02,0.03-0.02c0.01,0,0.06,0.03,0.1,0.05l-0.44,0.09c0.25-1.18,0.39-2.36,0.55-3.56
			c0.15-1.2,0.33-2.41,0.6-3.63c0.28-1.22,0.72-2.43,1.34-3.59c0.61-1.16,1.43-2.29,2.56-3.09l-0.2,0.94
			c-0.96-1.91-1.67-3.87-2.37-5.82c-0.68-1.96-1.37-3.89-2.25-5.76L571.24,181.73z"/>
	</g>
	
		<radialGradient id="SVGID_8_" cx="527.9639" cy="208.692" r="5.5313" gradientTransform="matrix(0.9997 0.0229 -0.0229 0.9997 4.8419 -12.0768)" gradientUnits="userSpaceOnUse">
		<stop  offset="0" style="stop-color:#F8E37E"/>
		<stop  offset="0" style="stop-color:#F8E17C"/>
		<stop  offset="0" style="stop-color:#F7DC75"/>
		<stop  offset="0" style="stop-color:#F5D26A"/>
		<stop  offset="0" style="stop-color:#F5D168"/>
		<stop  offset="0" style="stop-color:#B49341"/>
		<stop  offset="0" style="stop-color:#856626"/>
		<stop  offset="0" style="stop-color:#73551B"/>
	</radialGradient>
	<path class="st20" d="M523.97,201.87c2.68,2.59,4.34,6.51,7.88,7.88c-2.02,1.38-1.73,4.33-0.04,5.66"/>
	<g class="st13">
		<path class="st10" d="M536.67,192.81c2.4-0.57,4.4-1.58,6.52-2.67c1.06-0.53,2.14-1.09,3.29-1.57c0.58-0.23,1.18-0.44,1.8-0.6
			c0.64-0.15,1.25-0.28,1.86-0.36c1.23-0.18,2.45-0.31,3.65-0.51c1.2-0.2,2.37-0.52,3.52-0.88c1.14-0.38,2.29-0.84,3.33-1.36
			c1.03-0.49,2.08-1.34,3.83-1.42l0.73-0.03l0.44,1.4c0.02,0.07,0.03,0,0.06,0.03l0.35,0.34c0.2,0.2,0.49,0.48,0.74,0.94
			c0.12,0.23,0.22,0.51,0.27,0.76c0.04,0.23,0.07,0.48,0.06,0.74c-0.02,0.52-0.2,1.06-0.44,1.45c-0.24,0.4-0.5,0.69-0.73,0.92
			c-0.46,0.45-0.81,0.79-0.9,0.96l-2.75-1.56c0.11-0.24,0.24-0.47,0.38-0.7c0.16-0.24,0.44-0.52,0.7-0.74
			c0.37-0.22,0.77-0.45,1.22-0.45c0.48-0.06,0.83,0.04,1.17,0.15c0.34,0.11,0.54,0.26,0.8,0.41c0.19,0.15,0.38,0.31,0.55,0.46
			c0.31,0.31,0.58,0.63,0.81,0.95c0.44,0.66,0.78,1.32,1.03,2.06c0.13,0.37,0.23,0.76,0.29,1.23c0.03,0.21,0.04,0.56,0.02,0.8
			c-0.03,0.24-0.07,0.47-0.14,0.68c-0.59,1.75-1.74,2.6-2.57,3.47c-0.86,0.75-1.41,1.95-2.33,2.97l-0.26-0.15
			c0.17-0.62,0.27-1.25,0.44-1.9c0.14-0.64,0.41-1.35,0.75-1.96c0.66-1.18,1.38-2.24,1.42-3.03c0.1-0.4-0.54-1.57-1.15-2.31
			c-0.16-0.19-0.31-0.35-0.46-0.49c-0.07-0.05-0.13-0.09-0.19-0.14c-0.02,0.01-0.09-0.05-0.05-0.02c0.02,0.01,0.04,0.02,0.06,0.01
			c0.02-0.01,0.11,0.03,0.16,0.01c0.11-0.04,0.25-0.03,0.33-0.14c0.04,0,0.07-0.06,0.05-0.04c-0.02,0.05-0.05,0.1-0.09,0.14
			l-2.75-1.56c0.55-0.7,1.06-1.03,1.39-1.32c0.16-0.14,0.26-0.25,0.32-0.3c0.05-0.06,0.05-0.05,0.07-0.06
			c0.01-0.01,0.01-0.03,0.02-0.06c0.01-0.01,0.02,0.01,0.02,0c0.01-0.02-0.06-0.15-0.23-0.35c-0.16-0.2-0.42-0.49-0.64-0.93
			c-0.23-0.44-0.34-1.05-0.26-1.52l1.17,1.37c-0.72-0.17-1.91,0.17-3.14,0.47c-1.26,0.25-2.43,0.47-3.63,0.74
			c-1.18,0.29-2.36,0.59-3.5,1.01c-1.14,0.42-2.26,0.92-3.35,1.43l-3.19,1.47c-1.08,0.47-2.2,0.94-3.37,1.36
			c-2.31,0.81-5.02,1.44-7.5,0.7L536.67,192.81z"/>
	</g>
	<g>
		<path class="st19" d="M537.67,203.36c1.5-1.02,2.55-2.49,4.17-3.67c0.4-0.29,0.87-0.54,1.3-0.76l1.25-0.61l2.5-1.14
			c0.83-0.38,1.62-0.82,2.39-1.26c0.4-0.22,0.76-0.42,1.18-0.61c0.44-0.21,0.88-0.36,1.32-0.51c1.77-0.58,3.43-0.81,5.22-1.44
			l0.22,0.2c-0.35,1-1.11,1.78-1.86,2.4c-0.76,0.64-1.58,1.14-2.39,1.59c-0.41,0.21-0.81,0.42-1.2,0.59
			c-0.41,0.19-0.88,0.37-1.32,0.51l-2.71,0.78l-2.65,0.77l-1.32,0.37c-0.42,0.12-0.79,0.24-1.18,0.42c-1.56,0.65-3,2.01-4.79,2.64
			L537.67,203.36z"/>
	</g>
	<g>
		<path class="st19" d="M537.05,222.44c1.07-2.21,2.23-4.28,3.6-6.3c1.39-1.99,3.01-3.92,5.11-5.45c1.09-0.77,2.11-1.32,3.11-1.91
			c0.49-0.28,0.95-0.58,1.41-0.88c0.47-0.32,0.86-0.62,1.43-1.03c1.05-0.73,2.09-1.22,2.91-1.89c0.78-0.55,1.47-1.95,2.71-2.32
			c-0.83,0.94-0.83,2.06-1.61,3.29c-0.77,1.12-1.73,1.94-2.51,2.74c-0.34,0.36-0.82,0.88-1.29,1.29c-0.47,0.43-0.99,0.83-1.5,1.19
			c-0.51,0.37-1.02,0.69-1.51,1.02l-0.73,0.48l-0.67,0.46c-1.76,1.28-3.4,2.88-5.07,4.53C540.77,219.29,539.08,221.03,537.05,222.44
			z"/>
	</g>
	<g class="st21">
		<g>
			<path class="st10" d="M548.65,223.23c2.11,0.02,4.4,0.44,5.97-1.32c1.31-1.47,1.76-3.49,2.58-5.23c0.4-0.86,0.9-1.68,1.67-2.26
				c0.64-0.48,1.4-0.74,2.12-1.08c0.84-0.4,1.66-0.89,2.17-1.69c0.51-0.81,0.75-1.76,1.21-2.6c0.06-0.12,0.02-0.67,0.02-0.73
				c0.01-0.59,0.01-1.18,0.01-1.77c0-0.59,0-1.18-0.01-1.77c0-0.16-0.09-0.6-0.02-0.73c-0.45,0.81-0.69,1.73-1.16,2.52
				c-0.51,0.85-1.34,1.36-2.22,1.77c-0.72,0.34-1.48,0.6-2.12,1.08c-0.77,0.58-1.27,1.4-1.67,2.26c-0.82,1.75-1.27,3.76-2.58,5.23
				c-1.57,1.76-3.87,1.34-5.97,1.32C548.63,218.23,548.6,223.23,548.65,223.23L548.65,223.23z"/>
		</g>
	</g>
	<radialGradient id="SVGID_9_" cx="539.4097" cy="226.1897" r="2.4666" gradientUnits="userSpaceOnUse">
		<stop  offset="0" style="stop-color:#F8E37E"/>
		<stop  offset="0" style="stop-color:#F8E17C"/>
		<stop  offset="0" style="stop-color:#F7DC75"/>
		<stop  offset="0" style="stop-color:#F5D26A"/>
		<stop  offset="0" style="stop-color:#F5D168"/>
		<stop  offset="0" style="stop-color:#B49341"/>
		<stop  offset="0" style="stop-color:#856626"/>
		<stop  offset="0" style="stop-color:#73551B"/>
	</radialGradient>
	<path class="st22" d="M536.79,223.9c1.72-0.01,3.62,0.68,5.24-0.01c-2.14,1.01-3.15,2.38-2.04,4.6"/>
	<g class="st14">
		<path class="st15" d="M652.34,167.81c-0.22-1.07-0.09-2.19,0.04-3.26c0.15-1.09,0.31-2.13,0.31-3.22
			c0.04-2.16,0.08-4.33-0.09-6.47l0.67,0.13c-0.1,0.21-0.04,0.56,0.08,0.9c0.12,0.35,0.3,0.69,0.48,1.05
			c0.17,0.35,0.37,0.74,0.5,1.15l0.36,1.16c0.44,1.55,0.83,3.18,0.67,4.86l-0.11,1.09l-0.45-0.98c-0.2-0.44-0.15-0.89-0.06-1.27
			c0.1-0.39,0.26-0.74,0.43-1.07c0.34-0.67,0.76-1.28,1.11-1.91l0.06-0.11l0.11,0.01l0.37,0.04l0.14,0.02l0.03,0.08
			c0.36,0.99,0.65,2.05,0.53,3.11c-0.02-1.05-0.38-2.05-0.82-2.99l0.17,0.09l-0.47,0l0.17-0.1c-0.31,0.69-0.7,1.3-0.99,1.96
			c-0.28,0.63-0.53,1.39-0.27,1.87l-0.56,0.11c0.08-1.54-0.28-3.1-0.75-4.6l-0.38-1.13c-0.11-0.36-0.29-0.68-0.48-1.05
			c-0.18-0.36-0.36-0.74-0.5-1.15c-0.12-0.41-0.26-0.9-0.02-1.44l0.59-1.34l0.09,1.47c0.13,2.19,0.1,4.38-0.1,6.55
			c-0.07,1.09-0.26,2.19-0.51,3.24C652.46,165.65,652.27,166.72,652.34,167.81z"/>
	</g>
	<path class="st16" d="M562.49,152.64c0.7,1.95,2.69,1.55,2.39,4.77c-2.05-0.87-4.66-1.31-6.86-1.9c1.57,0.89,5.35,1.41,5.78,3.32
		c0.51,2.29-1.66,0.5-2.94,0.51c0.8,1.08,3.07,0.95,3.87,2.47c0.46,0.88,0.03,2.41,0.23,3.41c-1.44-0.95-3.51,0.28-4.6,0.3
		c1.77-0.6,5.18-0.51,3.78,1.32c-1.17,1.52-4.06,1.29-5.59,2.55"/>
	<g class="st13">
		<path class="st10" d="M657.15,151.55c0.81-0.53,1.62-0.76,2.4-0.9c0.79-0.11,1.57-0.2,2.33,0.01c0.76,0.21,1.53,0.71,2.31,0.78
			c0.78,0.09,1.55-0.12,2.27-0.48c0.72-0.37,1.41-0.72,2.09-0.95c0.67-0.28,1.31-0.59,1.97-0.81c0.34-0.09,0.66-0.22,1.01-0.3
			c0.37-0.11,0.8-0.23,1.28-0.3c0.48-0.08,1.05-0.09,1.51,0.05c0.47,0.13,0.87,0.33,1.25,0.61l-0.01,0.3
			c-0.4,0.25-0.79,0.43-1.1,0.62c-0.32,0.2-0.52,0.39-0.76,0.61c-0.25,0.22-0.51,0.48-0.85,0.71c-0.36,0.24-0.73,0.5-1.13,0.67
			c-0.79,0.38-1.67,0.51-2.52,0.6c-0.43,0.05-0.85,0.07-1.28,0.04c-0.43-0.04-0.86-0.13-1.27-0.21c-0.84-0.19-1.63-0.31-2.43-0.18
			c-0.79,0.11-1.59,0.58-2.4,0.76c-0.81,0.17-1.6,0.01-2.38-0.18c-0.78-0.22-1.54-0.53-2.3-1.13L657.15,151.55z"/>
	</g>
	<path class="st10" d="M659.79,158.76c0.4,3.89,1.75,8.39,0.68,12.14c0.25-0.72,0.81-1.96,2.03-2.9c0.47-0.36,1.04-0.69,2-1
		c3.15-1.02,4.82-0.07,8.27-0.78c0.6-0.12,1.49-0.35,2.54-0.77c-1.41-1-4.7-0.43-6.36-0.35c-2.25,0.1-5.15,0.77-7.35,0.46
		c-1.09-2.85,1.45-1.08,2.41-2.41c-0.62-0.6-2.21-0.11-2.45-1.13c-0.04-0.19-0.03-0.34,0.02-0.46c0.27-0.72,1.09-0.72,1.3-1.24
		c0.13-0.33-0.06-0.74-1.38-2.3c-1.18-1.4-1.77-2.11-2-2C659.41,156.05,659.11,156.31,659.79,158.76z"/>
	<g class="st13">
		<path class="st10" d="M671.73,159.97c0.43-1.17,1.57-2.11,2.86-2.42c1.28-0.34,2.58-0.26,3.79-0.17c0.6,0.04,1.23,0.07,1.67,0
			c0.43-0.07,0.68-0.16,1.14-0.39c0.57-0.33,1.31-0.57,2.01-0.6c0.69-0.04,1.5,0.13,1.98,0.67l-0.09,0.18
			c-0.63,0.03-1.09,0.27-1.55,0.51c-0.47,0.27-0.83,0.55-1.24,0.9c-0.28,0.22-0.62,0.43-1.02,0.56c-0.4,0.13-0.84,0.17-1.21,0.14
			c-0.76-0.07-1.32-0.28-1.91-0.4c-1.16-0.25-2.29-0.5-3.39-0.43c-1.1,0.03-2.14,0.56-2.85,1.53L671.73,159.97z"/>
	</g>
	<radialGradient id="SVGID_10_" cx="683.5472" cy="114.7696" r="4.3047" gradientUnits="userSpaceOnUse">
		<stop  offset="0" style="stop-color:#F8E37E"/>
		<stop  offset="0" style="stop-color:#F8E17C"/>
		<stop  offset="0" style="stop-color:#F7DC75"/>
		<stop  offset="0" style="stop-color:#F5D26A"/>
		<stop  offset="0" style="stop-color:#F5D168"/>
		<stop  offset="0" style="stop-color:#B49341"/>
		<stop  offset="0" style="stop-color:#856626"/>
		<stop  offset="0" style="stop-color:#73551B"/>
	</radialGradient>
	<path class="st23" d="M684.51,110c0.35,2.79-0.31,4.21-1,5c-0.8,0.91-1.96,1.35-3,3c-0.39,0.62-0.61,1.17-0.74,1.54
		c1.12-1.14,2.23-1.44,2.74-1.54c0.7-0.14,1.28-0.07,2,0c1.21,0.13,2.18,0.41,2.82,0.64"/>
	<path class="st24" d="M643.51,251c-0.22-0.13,2.52-3.32,2.94-8.1c0.27-3.13-0.53-5.91,0.02-6.07c0.42-0.12,0.72,1.51,2.04,2.17
		c2.61,1.32,6.73-2.36,7-2c0.23,0.31-3,2.71-6,6C645.73,247.14,643.73,251.13,643.51,251z"/>
	<path class="st11" d="M531.51,184c-0.65-0.21-2.77-0.99-4,0c-1.04,0.83-0.82,2.4-2,3c-0.68,0.34-1.46,0.18-2,0c0-0.33,0-0.67,0-1
		c0-0.67,0-1.33,0-2c0.11-0.88,0.38-1.73,1-2c0.44-0.2,0.91-0.03,1,0c2.96,0.94,19-5,19-5c11.74-4.12,23.88-1.98,24-1
		c0.05,0.38-1.68,0.91-2,1c-2.88,0.87-5.46,0.14-6,0C552.64,174.99,539.21,186.43,531.51,184z"/>
	<path class="st11" d="M532.06,136.35c0.15-0.69,0.37-1.47,0.69-2.29c0.66-1.67,1.51-2.96,2.24-3.87c4.71,1.15,7.77,3.04,9.73,4.61
		c2.56,2.04,4.01,4.16,7.68,5.48c0.98,0.35,1.38,0.38,3.93,1.24c4.03,1.36,5.47,2.11,5.8,3.36c0.05,0.18,0.21,0.78-0.06,1
		c-0.69,0.56-2.96-2.44-6.8-3.43c-1.69-0.43-1.93-0.03-3.99-0.25c-3.88-0.41-5.84-2.15-8.8-3.55
		C540.23,137.59,536.84,136.45,532.06,136.35z"/>
	<path class="st9" d="M553.77,111.46c-1.99,0.57-2.99,0.86-3.65,1.29c-2.22,1.44-2.46,4.03-2.47,5.2c-0.99,3.81-0.69,4.86-0.21,5.11
		c0.68,0.35,2.01-0.79,2.7-1.38c2.41-2.06,2.32-3.75,3.39-3.75c1.45,0,2.41,3.11,5.4,6.18c4.48,4.6,10.79,6.31,11.06,5.89
		c0.32-0.52-8.45-3.94-9.49-8.99c-0.53-2.56,1.23-4.05-0.35-7.25c-0.35-0.7-1.14-2.24-2.62-2.77
		C557.09,110.85,556.41,110.71,553.77,111.46z"/>
	<g class="st25">
		<path class="st15" d="M566.9,138.45c0.27-0.88-0.04-1.75,0.29-2.85c0.1-0.28,0.3-0.57,0.56-0.77c0.26-0.2,0.53-0.32,0.77-0.41
			c0.5-0.18,0.82-0.27,1.09-0.49c0.55-0.43,1-1.11,1.34-1.89c0.33-0.77,0.76-1.66,0.94-2.41c0.27-0.85,0.4-1.79,0.99-2.82
			c0.16-0.25,0.39-0.55,0.71-0.75c0.29-0.19,0.56-0.29,0.81-0.38c0.5-0.17,0.98-0.24,1.42-0.32c0.38-0.07,0.9-0.21,1.26-0.32
			c0.38-0.12,0.66-0.29,0.89-0.58c0.26-0.25,0.36-0.65,0.51-1.12c0.08-0.23,0.16-0.47,0.31-0.69c0.15-0.22,0.37-0.39,0.61-0.45
			l0.04,0.09c-0.41,0.2-0.56,0.67-0.64,1.11c-0.08,0.44-0.12,0.94-0.39,1.34c-0.24,0.41-0.65,0.71-1.08,0.9
			c-0.43,0.18-0.86,0.33-1.31,0.47c-0.45,0.13-0.89,0.23-1.32,0.39c-0.43,0.15-0.81,0.39-1.02,0.79c-0.44,0.79-0.59,1.72-0.83,2.61
			c-0.11,0.45-0.29,0.89-0.48,1.31c-0.18,0.42-0.37,0.85-0.58,1.26c-0.42,0.82-0.96,1.64-1.77,2.14c-0.4,0.26-0.88,0.35-1.32,0.47
			c-0.44,0.11-0.85,0.34-1.04,0.75c-0.39,0.82-0.22,1.82-0.69,2.67L566.9,138.45z"/>
	</g>
	<g class="st13">
		<path class="st10" d="M533.68,145.73c1.01,0.2,1.74,1,2.41,1.66c0.68,0.68,1.31,1.32,2.15,1.52c1.69,0.57,3.54,0.31,5.54,0.38
			c1.01,0.06,2.06,0.15,3.13,0.61c1.02,0.45,1.78,1.09,2.47,1.56c0.69,0.5,1.27,0.73,2.16,0.79c0.85,0.05,1.77-0.04,2.71-0.28
			l0.11,0.17c-0.69,0.76-1.63,1.27-2.68,1.51c-0.53,0.13-1.09,0.17-1.69,0.09c-0.6-0.09-1.14-0.32-1.62-0.56
			c-0.95-0.5-1.66-1.1-2.35-1.52c-0.63-0.42-1.5-0.64-2.38-0.79c-1.77-0.27-3.85-0.18-5.76-1.04c-2.09-0.93-2.49-3.2-4.23-3.91
			L533.68,145.73z"/>
	</g>
	<radialGradient id="SVGID_11_" cx="543.8668" cy="109.4867" r="3.4437" gradientUnits="userSpaceOnUse">
		<stop  offset="0" style="stop-color:#F8E37E"/>
		<stop  offset="0" style="stop-color:#F8E17C"/>
		<stop  offset="0" style="stop-color:#F7DC75"/>
		<stop  offset="0" style="stop-color:#F5D26A"/>
		<stop  offset="0" style="stop-color:#F5D168"/>
		<stop  offset="0" style="stop-color:#B49341"/>
		<stop  offset="0" style="stop-color:#856626"/>
		<stop  offset="0" style="stop-color:#73551B"/>
	</radialGradient>
	<path class="st26" d="M540.55,113.05c0.7-2.17,4.8-2.79,6.63-2.15c-1.45-1.61-4.7-2.14-3.91-4.98"/>
	<g class="st13">
		<path class="st10" d="M541.69,172.54c-0.07-0.13-0.14-0.31,0.01-0.54c0.17-0.22,0.44-0.3,0.59-0.33c0.16-0.04,0.29-0.06,0.39-0.08
			c0.1-0.02,0.13-0.06,0.27-0.08c0.47-0.06,0.88-0.09,1.23,0.03c0.34,0.13,0.75,0.39,1.14,0.27c0.4-0.1,0.65-0.44,0.8-0.85
			c0.14-0.42,0.3-0.85,0.64-1.24c0.34-0.42,0.7-0.78,1.14-1.01c0.88-0.43,1.89-0.59,2.92-0.23l0.06,0.19
			c-0.64,0.86-1.26,1.39-1.86,1.86c-0.3,0.22-0.65,0.38-0.95,0.55c-0.3,0.21-0.69,0.45-1.17,0.65c-0.46,0.2-0.9,0.42-1.31,0.67
			c-0.39,0.26-0.86,0.68-1.39,0.81c-0.53,0.13-0.98-0.01-1.38-0.15c-0.08-0.03-0.26-0.09-0.37-0.15c-0.12-0.06-0.2-0.13-0.26-0.19
			c-0.07-0.05-0.03-0.11-0.04-0.2c-0.02-0.09-0.15-0.04-0.26,0.04L541.69,172.54z"/>
	</g>
	<g class="st27">
		<path class="st15" d="M530.51,157c3.34,0.08,6.66,0.08,9.94-0.04l5.39-0.2l-5.14,1.96c-1.34,0.51-2.67,0.69-3.86,0.97
			c-0.3,0.07-0.58,0.15-0.85,0.23c-0.33,0.11-0.69,0.19-0.97,0.27c-0.28,0.08-0.52,0.16-0.67,0.25c-0.16,0.09-0.17,0.15-0.13,0.11
			l-0.93-1.9c1.01,0.11,2.1,0.15,3.23,0.24c1.13,0.1,2.32,0.21,3.55,0.65l3.12,1.1l-2.9,1.52c-1.03,0.54-1.81,0.62-2.47,0.81
			c-0.54,0.14-1.27,0.45-1.93,0.7c-0.67,0.27-1.32,0.55-1.94,0.83c-0.61,0.29-1.21,0.61-1.63,0.94l-0.82-2.61
			c1.98,0.15,4.15-0.17,6.45-0.28l6.68-0.23c2.22-0.1,4.45-0.16,6.69-0.2c2.24-0.03,4.48-0.03,6.72,0.11
			c-2.2,0.44-4.4,0.84-6.6,1.23c-2.2,0.38-4.4,0.75-6.62,1.05l-3.34,0.43l-3.31,0.32c-2.14,0.25-4.4,0.67-6.88,0.52l-3.79-0.22
			l2.97-2.38c0.75-0.6,1.47-0.98,2.19-1.35c0.72-0.36,1.44-0.65,2.16-0.92c0.73-0.26,1.37-0.54,2.28-0.77
			c0.77-0.18,1.49-0.33,1.78-0.49l0.22,2.62c-0.83-0.3-1.82-0.5-2.87-0.64c-1.05-0.15-2.15-0.24-3.3-0.44l-1.88-0.32l0.95-1.59
			c0.36-0.6,0.9-0.94,1.33-1.11c0.44-0.18,0.82-0.25,1.17-0.32c0.36-0.06,0.63-0.1,0.92-0.16c0.35-0.08,0.69-0.13,1.03-0.18
			c1.35-0.2,2.6-0.23,3.72-0.49l0.25,1.75c-1.68-0.13-3.35-0.36-5-0.64C533.76,157.82,532.12,157.46,530.51,157z"/>
	</g>
	<path class="st15" d="M552.59,90.99c-0.39,0.32,0.63,1.66,1.72,5.14c1.03,3.31,1.34,6.03,1.72,6c0.34-0.03,0.05-2.28,0.86-2.57
		c0.9-0.33,1.68,2.32,4.3,3.43c2.42,1.03,3.84-0.34,5.16,0.86c1.4,1.27,0.27,3.24,1.89,4.5c0.55,0.42,1.33,0.63,2.9,1.05
		c1.25,0.34,1.56,0.3,2.09,0.45c2.94,0.87,3.98,5.27,4.3,5.14c0.18-0.07,0-1.61-0.86-3.43c-1.38-2.91-3.55-4.57-4.3-5.14
		c-4.79-3.67-10.28-8.01-12.03-9.43C555.69,93.24,553.18,90.52,552.59,90.99z"/>
	<g class="st21">
		<path class="st15" d="M653.94,175.26c3.15-1.84,6.7-2.85,10.31-3.32c3.61-0.4,7.35-0.39,10.87,0.68c3.53,1.06,6.74,2.8,10,4.15
			c3.24,1.44,6.56,2.73,9.81,4.4l-2.38,2.04c-1.86-2.63-3.39-5.33-5.02-8.16c-0.19-0.33-0.43-0.75-0.64-1.17
			c-0.22-0.39-0.43-0.89-0.6-1.44c-0.17-0.54-0.28-1.17-0.33-1.66c-0.05-0.5-0.08-0.82-0.13-1.08c-0.06-0.49-0.25-1-0.47-1.59
			c-0.11-0.28-0.25-0.55-0.45-1.02c-0.2-0.47-0.4-1.07-0.51-1.59l-0.08-0.39c-0.03-0.16-0.05-0.32-0.07-0.48
			c-0.04-0.32-0.04-0.61-0.04-0.86l0.03-1.13l-0.02-1.18c0-0.47,0.02-0.95,0.07-1.43c0.1-0.96,0.31-1.96,0.69-2.91
			c0.19-0.47,0.43-0.94,0.69-1.38c0.13-0.22,0.28-0.43,0.43-0.64l0.38-0.46c0.19-0.23,0.37-0.48,0.54-0.74
			c0.08-0.13,0.16-0.27,0.23-0.4l0.1-0.21l0.05-0.11c0.01-0.03,0.03-0.07,0.07-0.19c0.28-0.7,0.54-0.99,0.83-1.36
			c0.28-0.34,0.56-0.66,0.85-0.97c1.14-1.22,2.35-2.31,3.65-3.32l0.4,0.31c-0.63,1.52-1.35,2.97-1.99,4.4
			c-0.16,0.35-0.31,0.71-0.43,1.05c-0.11,0.32-0.26,0.72-0.21,0.79c0.01-0.02,0,0.03-0.01,0.1l-0.03,0.18l-0.07,0.36
			c-0.05,0.24-0.11,0.48-0.17,0.72c-0.14,0.47-0.31,0.94-0.53,1.39l-0.28,0.54c-0.05,0.14-0.11,0.27-0.15,0.41
			c-0.09,0.27-0.16,0.55-0.2,0.84c-0.09,0.57-0.12,1.17-0.08,1.8c0.01,0.31,0.05,0.63,0.1,0.95l0.08,0.49
			c0.03,0.22,0.07,0.48,0.09,0.71l0.1,1.26c0.01,0.15,0.03,0.26,0.05,0.33l0.08,0.3c0.08,0.26,0.14,0.41,0.27,0.67
			c0.12,0.26,0.34,0.7,0.53,1.16c0.37,0.89,0.67,1.91,0.78,3.01c0.05,0.54,0.04,1.01,0.05,1.31c0.01,0.3,0.02,0.48,0.06,0.7
			c0.04,0.22,0.11,0.47,0.26,0.79l0.41,0.98c1.26,2.85,2.56,5.86,3.56,8.93l1.95,6.01l-4.33-3.97c-1.25-1.15-2.57-2.27-3.99-3.24
			c-1.42-0.97-2.95-1.77-4.55-2.41c-3.19-1.32-6.74-1.51-10.09-1.66c-1.69-0.05-3.34-0.18-5-0.32c-1.66-0.12-3.33-0.24-5.01-0.29
			c-3.37-0.13-6.76-0.09-10.37-0.17L653.94,175.26z"/>
	</g>
	<path class="st28" d="M650.51,143c-0.04,0.09-0.4,0.94-1,1c-0.58,0.06-1.23-0.62-1.71-1.73c-2.99-4.81-5.99-9.62-8.98-14.43
		c-2.15-1.96-2.46-2.62-2.31-2.84c0.32-0.48,2.46,1.58,5,1c2-0.45,2.83-2.22,6-3c0.33-0.08,0.88-0.2,1,0c0.38,0.66-4.55,3.75-4,5
		c0.26,0.6,1.56,0.23,2,1c0.46,0.81-0.66,1.76-1,3C644.43,135.9,651.72,140.04,650.51,143z"/>
	<g class="st13">
		<path class="st10" d="M679.02,112.02c-1.98,1.23-3.99,1.76-5.82,2.31c-0.92,0.27-1.81,0.54-2.65,0.86
			c-0.85,0.34-1.76,0.74-2.63,1.11c-3.52,1.54-6.99,3.23-10.36,5.13c2.99-2.46,6.15-4.74,9.4-6.89c0.82-0.54,1.61-1.06,2.48-1.6
			c0.89-0.54,1.79-0.98,2.66-1.42c1.74-0.86,3.4-1.69,4.55-2.74L679.02,112.02z"/>
	</g>
	<g>
		<path class="st10" d="M657.93,132.38c2.38-0.33,4.58-1.26,7.12-1.44c1.28-0.03,2.5,0.19,3.73,0.12c1.22-0.06,2.42-0.31,3.58-0.7
			c1.15-0.4,2.27-0.8,3.36-1.22c1-0.43,2.29-1.04,3.53-1.27c2.54-0.5,4.97-0.42,7.47-0.23l0.04,0.2c-2.31,1.08-4.78,1.48-7.01,2.11
			l-1.67,0.46c-0.52,0.15-1.14,0.38-1.77,0.53c-1.24,0.35-2.51,0.49-3.76,0.5c-1.26,0.03-2.48,0.07-3.69,0.26
			c-1.2,0.19-2.42,0.62-3.57,0.89c-1.13,0.3-2.37,0.47-3.62,0.55c-0.62,0.04-1.26,0.04-1.9-0.03c-0.63-0.07-1.31-0.18-1.89-0.53
			L657.93,132.38z"/>
	</g>
	<g>
		<path class="st10" d="M666.19,124.01c0.04-0.5,0.39-0.96,0.78-1.29c0.41-0.32,0.87-0.55,1.34-0.7c0.92-0.32,1.87-0.38,2.68-0.48
			c0.85-0.09,1.68-0.17,2.43-0.33c0.75-0.16,1.49-0.53,2.36-0.93l0.07,0.07c-0.6,0.65-1.29,1.25-2.14,1.59
			c-0.84,0.35-1.73,0.47-2.61,0.59c-0.89,0.09-1.77,0.1-2.64,0.26c-0.84,0.16-1.76,0.48-2.18,1.26L666.19,124.01z"/>
	</g>
	<g class="st21">
		<path class="st15" d="M658.01,144.48c-0.08-0.21-0.01-0.46,0.07-0.66c0.09-0.19,0.19-0.36,0.3-0.52c0.22-0.31,0.47-0.54,0.71-0.78
			c0.5-0.44,1.01-0.75,1.53-0.99c0.26-0.12,0.52-0.23,0.79-0.31c0.13-0.04,0.27-0.09,0.41-0.12c0.08-0.02,0.13-0.03,0.15-0.04
			l0.1-0.05c0.32-0.12,0.89-0.23,1.38-0.28c1.02-0.1,2.03,0,3.01,0.31c1,0.33,2,0.81,3.03,1.8l0.02,0.3
			c-0.96,0.12-1.92,0.22-2.88,0.29c-0.96,0.08-1.92,0.16-2.88,0.28l-1.45,0.13c-0.51,0.02-0.96,0.03-1.44,0.07
			c-0.47,0.04-0.95,0.1-1.41,0.19c-0.43,0.08-0.99,0.2-1.15,0.47L658.01,144.48z"/>
	</g>
	<g class="st29">
		<path class="st15" d="M676.98,140.35c1.36-0.78,2.84-1.17,4.33-1.39c0.75-0.1,1.58-0.14,2.36-0.06c0.39,0.03,0.75,0.09,1,0.12
			c0.25,0.03,0.43,0.04,0.7,0.03c0.24,0,0.63-0.07,0.99-0.11l1.1-0.13c0.74-0.09,1.5-0.18,2.23-0.32l2.21-0.4
			c0.36-0.07,0.72-0.15,1.06-0.24c0.33-0.08,0.65-0.24,0.7-0.35c0.02-0.1-0.06-0.12-0.11-0.22l-0.35-0.6
			c-0.33-0.53-0.73-1.26-1.04-1.97c-0.34-0.69-0.59-1.66-0.75-2.23c-0.18-0.57-0.4-1.16-0.65-1.8c-0.93-2.61-1.99-5.19-2.88-8.1
			l0.24-0.18c2.49,1.81,4.31,4.3,5.6,7.05c0.3,0.7,0.59,1.47,0.74,2.32c0.14,0.85,0.17,1.31,0.36,1.97l0.62,2.05
			c0.1,0.41,0.22,0.88,0.15,1.5c-0.04,0.62-0.47,1.35-1.09,1.61c-0.58,0.25-1,0.19-1.39,0.2c-0.39-0.01-0.75-0.03-1.11-0.02
			c-0.72,0.02-1.41,0.11-2.08,0.33c-0.67,0.21-1.3,0.57-1.93,0.95l-0.95,0.58c-0.33,0.18-0.63,0.36-1.09,0.53
			c-0.43,0.16-0.99,0.24-1.46,0.22c-0.47-0.02-0.83-0.09-1.15-0.15c-0.65-0.11-1.28-0.19-1.98-0.26c-1.41-0.15-2.82-0.31-4.33-0.65
			L676.98,140.35z"/>
	</g>
</g>
<path class="st30" d="M635.51,344"/>
</svg>
